<mxfile host="65bd71144e">
    <diagram id="Fki3bgAzkLumfT5Dtg4L" name="Page-1">
        <mxGraphModel dx="907" dy="655" grid="1" gridSize="10" guides="1" tooltips="1" connect="1" arrows="1" fold="1" page="1" pageScale="1" pageWidth="850" pageHeight="1100" math="0" shadow="0">
            <root>
                <mxCell id="0"/>
                <mxCell id="1" parent="0"/>
                <mxCell id="165" value="queryMachine" style="swimlane;whiteSpace=wrap;html=1;" vertex="1" parent="1">
                    <mxGeometry x="60" y="50" width="800" height="870" as="geometry">
                        <mxRectangle x="50" y="40" width="50" height="30" as="alternateBounds"/>
                    </mxGeometry>
                </mxCell>
                <mxCell id="166" value="DisposeState" style="swimlane;whiteSpace=wrap;html=1;" vertex="1" parent="165">
                    <mxGeometry x="530" y="590" width="260" height="260" as="geometry"/>
                </mxCell>
                <mxCell id="167" value="DisposeEvent" style="edgeStyle=none;html=1;exitX=0.5;exitY=1;exitDx=0;exitDy=0;entryX=0.5;entryY=0;entryDx=0;entryDy=0;" edge="1" parent="166" source="168" target="169">
                    <mxGeometry relative="1" as="geometry"/>
                </mxCell>
                <mxCell id="168" value="waitingForDisposeEventState" style="swimlane;whiteSpace=wrap;html=1;" vertex="1" parent="166">
                    <mxGeometry x="20" y="40" width="220" height="40" as="geometry"/>
                </mxCell>
                <mxCell id="169" value="DisposingState" style="swimlane;whiteSpace=wrap;html=1;" vertex="1" parent="166">
                    <mxGeometry x="20" y="120" width="220" height="40" as="geometry"/>
                </mxCell>
                <mxCell id="170" value="DisposedState" style="swimlane;whiteSpace=wrap;html=1;" vertex="1" parent="166">
                    <mxGeometry x="20" y="210" width="220" height="40" as="geometry"/>
                </mxCell>
                <mxCell id="171" value="DisposingCompleteEvent" style="endArrow=classic;html=1;exitX=0.5;exitY=1;exitDx=0;exitDy=0;entryX=0.5;entryY=0;entryDx=0;entryDy=0;" edge="1" parent="166" source="169" target="170">
                    <mxGeometry width="50" height="50" relative="1" as="geometry">
                        <mxPoint x="380" y="390" as="sourcePoint"/>
                        <mxPoint x="430" y="340" as="targetPoint"/>
                    </mxGeometry>
                </mxCell>
                <mxCell id="172" value="waitingForQueryEventState" style="swimlane;whiteSpace=wrap;html=1;" vertex="1" parent="165">
                    <mxGeometry x="30" y="30" width="220" height="40" as="geometry">
                        <mxRectangle x="30" y="30" width="200" height="30" as="alternateBounds"/>
                    </mxGeometry>
                </mxCell>
                <mxCell id="173" value="GatherCancelledEvent&lt;span style=&quot;color: rgba(0, 0, 0, 0); font-family: monospace; font-size: 0px; text-align: start; background-color: rgb(251, 251, 251);&quot;&gt;%3CmxGraphModel%3E%3Croot%3E%3CmxCell%20id%3D%220%22%2F%3E%3CmxCell%20id%3D%221%22%20parent%3D%220%22%2F%3E%3CmxCell%20id%3D%222%22%20value%3D%22A%22%20style%3D%22ellipse%3BwhiteSpace%3Dwrap%3Bhtml%3D1%3Baspect%3Dfixed%3BfontSize%3D12%3B%22%20vertex%3D%221%22%20parent%3D%221%22%3E%3CmxGeometry%20x%3D%22470%22%20y%3D%22140%22%20width%3D%2220%22%20height%3D%2220%22%20as%3D%22geometry%22%2F%3E%3C%2FmxCell%3E%3C%2Froot%3E%3C%2FmxGraphModel%3E&lt;/span&gt;" style="edgeStyle=none;html=1;exitX=1;exitY=0.25;exitDx=0;exitDy=0;entryX=0;entryY=0.5;entryDx=0;entryDy=0;fontSize=12;" edge="1" parent="165" source="174" target="208">
                    <mxGeometry relative="1" as="geometry">
                        <mxPoint as="offset"/>
                    </mxGeometry>
                </mxCell>
                <mxCell id="174" value="gatherQueryFragmentsState" style="swimlane;whiteSpace=wrap;html=1;" vertex="1" parent="165">
                    <mxGeometry x="30" y="100" width="220" height="40" as="geometry">
                        <mxRectangle x="30" y="100" width="200" height="30" as="alternateBounds"/>
                    </mxGeometry>
                </mxCell>
                <mxCell id="175" value="QueryEvent:QueryEventPayloadT" style="edgeStyle=none;html=1;exitX=0.5;exitY=1;exitDx=0;exitDy=0;entryX=0.5;entryY=0;entryDx=0;entryDy=0;" edge="1" parent="165" source="172" target="174">
                    <mxGeometry x="-0.3333" relative="1" as="geometry">
                        <mxPoint as="offset"/>
                    </mxGeometry>
                </mxCell>
                <mxCell id="176" value="parallelQueryState" style="swimlane;whiteSpace=wrap;html=1;" vertex="1" parent="165">
                    <mxGeometry x="10" y="170" width="510" height="430" as="geometry">
                        <mxRectangle x="10" y="170" width="150" height="30" as="alternateBounds"/>
                    </mxGeometry>
                </mxCell>
                <mxCell id="177" value="queryBartState" style="swimlane;whiteSpace=wrap;html=1;" vertex="1" parent="176">
                    <mxGeometry x="30" y="50" width="200" height="180" as="geometry"/>
                </mxCell>
                <mxCell id="178" value="waitingForQueryBartEventState" style="swimlane;whiteSpace=wrap;html=1;" vertex="1" parent="177">
                    <mxGeometry x="5" y="40" width="190" height="40" as="geometry"/>
                </mxCell>
                <mxCell id="179" value="fetchingFromBartState" style="swimlane;whiteSpace=wrap;html=1;" vertex="1" parent="177">
                    <mxGeometry x="10" y="120" width="180" height="40" as="geometry"/>
                </mxCell>
                <mxCell id="180" value="waitingForBartQueryCompletedEvent" style="edgeStyle=none;html=1;exitX=0.5;exitY=1;exitDx=0;exitDy=0;entryX=0.5;entryY=0;entryDx=0;entryDy=0;" edge="1" parent="177" source="178" target="179">
                    <mxGeometry relative="1" as="geometry">
                        <mxPoint x="210" y="-170" as="sourcePoint"/>
                        <mxPoint x="100" y="120" as="targetPoint"/>
                        <mxPoint as="offset"/>
                    </mxGeometry>
                </mxCell>
                <mxCell id="181" value="queryGrokState" style="swimlane;whiteSpace=wrap;html=1;" vertex="1" parent="176">
                    <mxGeometry x="275" y="50" width="205" height="180" as="geometry"/>
                </mxCell>
                <mxCell id="182" value="waitingForQueryGrokEventState" style="swimlane;whiteSpace=wrap;html=1;" vertex="1" parent="181">
                    <mxGeometry x="5" y="40" width="195" height="40" as="geometry"/>
                </mxCell>
                <mxCell id="183" value="&lt;font style=&quot;font-size: 12px;&quot;&gt;fetchingFromGrokState&lt;/font&gt;" style="swimlane;whiteSpace=wrap;html=1;" vertex="1" parent="181">
                    <mxGeometry x="5" y="120" width="195" height="40" as="geometry"/>
                </mxCell>
                <mxCell id="184" value="waitingForGrokQueryCompletedEvent" style="edgeStyle=none;html=1;exitX=0.5;exitY=1;exitDx=0;exitDy=0;entryX=0.5;entryY=0;entryDx=0;entryDy=0;" edge="1" parent="181" source="182" target="183">
                    <mxGeometry relative="1" as="geometry">
                        <mxPoint x="210" y="-170" as="sourcePoint"/>
                        <mxPoint x="100" y="120" as="targetPoint"/>
                        <mxPoint as="offset"/>
                    </mxGeometry>
                </mxCell>
                <mxCell id="185" value="FetchingFromGrokCompletedEvent" style="edgeStyle=none;html=1;exitX=0.5;exitY=1;exitDx=0;exitDy=0;entryX=1;entryY=0;entryDx=0;entryDy=0;" edge="1" parent="176" source="183" target="190">
                    <mxGeometry x="0.5184" y="34" relative="1" as="geometry">
                        <mxPoint x="140" y="219.99999999999977" as="sourcePoint"/>
                        <mxPoint x="330" y="350" as="targetPoint"/>
                        <mxPoint as="offset"/>
                    </mxGeometry>
                </mxCell>
                <mxCell id="186" value="FetchingFromBartCompletedEvent" style="edgeStyle=none;html=1;exitX=0.5;exitY=1;exitDx=0;exitDy=0;entryX=0;entryY=0;entryDx=0;entryDy=0;" edge="1" parent="176" source="179" target="190">
                    <mxGeometry x="0.6106" y="8" relative="1" as="geometry">
                        <mxPoint x="450" y="250" as="sourcePoint"/>
                        <mxPoint x="140" y="350" as="targetPoint"/>
                        <mxPoint as="offset"/>
                    </mxGeometry>
                </mxCell>
                <mxCell id="187" value="A" style="ellipse;whiteSpace=wrap;html=1;aspect=fixed;fontSize=12;" vertex="1" parent="176">
                    <mxGeometry x="480" y="180" width="20" height="20" as="geometry"/>
                </mxCell>
                <mxCell id="188" value="A" style="ellipse;whiteSpace=wrap;html=1;aspect=fixed;fontSize=12;" vertex="1" parent="176">
                    <mxGeometry x="40" y="270" width="20" height="20" as="geometry"/>
                </mxCell>
                <mxCell id="189" value="setupWaitAllState" style="swimlane;whiteSpace=wrap;html=1;" vertex="1" parent="176">
                    <mxGeometry x="145" y="260" width="220" height="40" as="geometry"/>
                </mxCell>
                <mxCell id="190" value="waitAllState" style="swimlane;whiteSpace=wrap;html=1;" vertex="1" parent="176">
                    <mxGeometry x="145" y="360" width="220" height="40" as="geometry"/>
                </mxCell>
                <mxCell id="191" value="CancelledState" style="swimlane;whiteSpace=wrap;html=1;" vertex="1" parent="176">
                    <mxGeometry y="490" width="220" height="40" as="geometry"/>
                </mxCell>
                <mxCell id="192" value="ErrorState" style="swimlane;whiteSpace=wrap;html=1;" vertex="1" parent="176">
                    <mxGeometry x="290" y="490" width="220" height="40" as="geometry"/>
                </mxCell>
                <mxCell id="193" style="edgeStyle=none;html=1;exitX=0.5;exitY=1;exitDx=0;exitDy=0;entryX=0.815;entryY=-0.064;entryDx=0;entryDy=0;entryPerimeter=0;fontSize=12;" edge="1" parent="176" source="194" target="191">
                    <mxGeometry relative="1" as="geometry"/>
                </mxCell>
                <mxCell id="194" value="A" style="ellipse;whiteSpace=wrap;html=1;aspect=fixed;fontSize=12;" vertex="1" parent="176">
                    <mxGeometry x="170" y="450" width="20" height="20" as="geometry"/>
                </mxCell>
                <mxCell id="195" value="returnDataToCallerState" style="swimlane;whiteSpace=wrap;html=1;" vertex="1" parent="176">
                    <mxGeometry x="130" y="570" width="220" height="40" as="geometry"/>
                </mxCell>
                <mxCell id="196" style="edgeStyle=none;html=1;exitX=0.5;exitY=1;exitDx=0;exitDy=0;entryX=0.25;entryY=0;entryDx=0;entryDy=0;fontSize=12;" edge="1" parent="176" source="191" target="195">
                    <mxGeometry relative="1" as="geometry"/>
                </mxCell>
                <mxCell id="197" style="edgeStyle=none;html=1;exitX=0.25;exitY=1;exitDx=0;exitDy=0;entryX=0.75;entryY=0;entryDx=0;entryDy=0;fontSize=12;" edge="1" parent="176" source="192" target="195">
                    <mxGeometry relative="1" as="geometry"/>
                </mxCell>
                <mxCell id="198" value="ParallelQueryCompletedEvent:ParallelQueryCompletedPayloadT" style="edgeStyle=none;html=1;entryX=0.5;entryY=0;entryDx=0;entryDy=0;fontSize=12;exitX=0.5;exitY=1;exitDx=0;exitDy=0;" edge="1" parent="176" source="190" target="195">
                    <mxGeometry x="-0.7647" relative="1" as="geometry">
                        <mxPoint as="offset"/>
                        <mxPoint x="240" y="410" as="sourcePoint"/>
                    </mxGeometry>
                </mxCell>
                <mxCell id="199" style="edgeStyle=none;html=1;exitX=0.5;exitY=1;exitDx=0;exitDy=0;entryX=0.91;entryY=0;entryDx=0;entryDy=0;entryPerimeter=0;fontSize=12;" edge="1" parent="176" source="200" target="192">
                    <mxGeometry relative="1" as="geometry"/>
                </mxCell>
                <mxCell id="200" value="B" style="ellipse;whiteSpace=wrap;html=1;aspect=fixed;fontSize=12;" vertex="1" parent="176">
                    <mxGeometry x="480" y="450" width="20" height="20" as="geometry"/>
                </mxCell>
                <mxCell id="201" value="C" style="ellipse;whiteSpace=wrap;html=1;aspect=fixed;fontSize=12;" vertex="1" parent="176">
                    <mxGeometry x="230" y="670" width="20" height="20" as="geometry"/>
                </mxCell>
                <mxCell id="202" style="edgeStyle=orthogonalEdgeStyle;rounded=0;orthogonalLoop=1;jettySize=auto;html=1;exitX=0.5;exitY=1;exitDx=0;exitDy=0;entryX=0.5;entryY=0;entryDx=0;entryDy=0;" edge="1" parent="176" source="195" target="201">
                    <mxGeometry relative="1" as="geometry"/>
                </mxCell>
                <mxCell id="203" value="QueryDoneEvent" style="edgeLabel;html=1;align=center;verticalAlign=middle;resizable=0;points=[];" vertex="1" connectable="0" parent="202">
                    <mxGeometry x="-0.3" y="-3" relative="1" as="geometry">
                        <mxPoint as="offset"/>
                    </mxGeometry>
                </mxCell>
                <mxCell id="204" value="SetupWaitAllEvent:ActorRefsPayloadTSetup" style="endArrow=classic;html=1;rounded=0;exitX=0.5;exitY=0;exitDx=0;exitDy=0;entryX=0.5;entryY=0;entryDx=0;entryDy=0;" edge="1" parent="176" source="176" target="189">
                    <mxGeometry x="-0.6667" width="50" height="50" relative="1" as="geometry">
                        <mxPoint x="340" y="140" as="sourcePoint"/>
                        <mxPoint x="255" y="240" as="targetPoint"/>
                        <mxPoint as="offset"/>
                    </mxGeometry>
                </mxCell>
                <mxCell id="205" value="" style="endArrow=classic;html=1;rounded=0;exitX=0.5;exitY=1;exitDx=0;exitDy=0;entryX=0.5;entryY=0;entryDx=0;entryDy=0;" edge="1" parent="176" source="189" target="190">
                    <mxGeometry width="50" height="50" relative="1" as="geometry">
                        <mxPoint x="340" y="240" as="sourcePoint"/>
                        <mxPoint x="260" y="340" as="targetPoint"/>
                    </mxGeometry>
                </mxCell>
                <mxCell id="206" value="Allways" style="edgeLabel;html=1;align=center;verticalAlign=middle;resizable=0;points=[];" vertex="1" connectable="0" parent="205">
                    <mxGeometry x="-0.0703" y="-1" relative="1" as="geometry">
                        <mxPoint as="offset"/>
                    </mxGeometry>
                </mxCell>
                <mxCell id="207" value="GatherQueryFragmentsCompleteEvent" style="edgeStyle=none;html=1;exitX=0.5;exitY=1;exitDx=0;exitDy=0;entryX=0.25;entryY=0;entryDx=0;entryDy=0;" edge="1" parent="165" source="174" target="176">
                    <mxGeometry x="-0.2297" relative="1" as="geometry">
                        <mxPoint x="445" y="90" as="sourcePoint"/>
                        <mxPoint x="140.00000000000023" y="170" as="targetPoint"/>
                        <mxPoint as="offset"/>
                    </mxGeometry>
                </mxCell>
                <mxCell id="208" value="A" style="ellipse;whiteSpace=wrap;html=1;aspect=fixed;fontSize=12;" vertex="1" parent="165">
                    <mxGeometry x="420" y="100" width="20" height="20" as="geometry"/>
                </mxCell>
                <mxCell id="209" value="B" style="ellipse;whiteSpace=wrap;html=1;aspect=fixed;fontSize=12;" vertex="1" parent="165">
                    <mxGeometry x="420" y="120" width="20" height="20" as="geometry"/>
                </mxCell>
                <mxCell id="210" value="GatherErrorEvent" style="edgeStyle=none;html=1;exitX=1;exitY=0.75;exitDx=0;exitDy=0;entryX=0;entryY=0.5;entryDx=0;entryDy=0;fontSize=12;" edge="1" parent="165" source="174" target="209">
                    <mxGeometry x="-0.2941" relative="1" as="geometry">
                        <mxPoint x="260.0000000000002" y="120" as="sourcePoint"/>
                        <mxPoint x="430.0000000000002" y="120" as="targetPoint"/>
                        <mxPoint as="offset"/>
                    </mxGeometry>
                </mxCell>
                <mxCell id="211" value="Cancelled" style="edgeStyle=none;html=1;fontSize=12;entryX=0.5;entryY=0;entryDx=0;entryDy=0;" edge="1" parent="165" target="188">
                    <mxGeometry x="0.3333" relative="1" as="geometry">
                        <mxPoint x="60" y="380" as="sourcePoint"/>
                        <mxPoint x="60" y="430" as="targetPoint"/>
                        <mxPoint as="offset"/>
                    </mxGeometry>
                </mxCell>
                <mxCell id="212" value="C" style="ellipse;whiteSpace=wrap;html=1;aspect=fixed;fontSize=12;" vertex="1" parent="165">
                    <mxGeometry x="420" y="40" width="20" height="20" as="geometry"/>
                </mxCell>
                <mxCell id="213" value="QueryDone" style="endArrow=classic;html=1;rounded=0;entryX=1;entryY=0.5;entryDx=0;entryDy=0;exitX=0;exitY=0.5;exitDx=0;exitDy=0;" edge="1" parent="165" source="212" target="172">
                    <mxGeometry width="50" height="50" relative="1" as="geometry">
                        <mxPoint x="350" y="210" as="sourcePoint"/>
                        <mxPoint x="400" y="160" as="targetPoint"/>
                    </mxGeometry>
                </mxCell>
                <mxCell id="214" value="ParallelQueryState has an entry: action that enqueues a raise event for each enabled QueryEngine" style="whiteSpace=wrap;html=1;shape=mxgraph.basic.roundRectCallout;dx=30;dy=15;size=5;boundedLbl=1;" vertex="1" parent="165">
                    <mxGeometry x="530" y="110" width="190" height="70" as="geometry"/>
                </mxCell>
                <mxCell id="215" value="setupWaitState is for getting an event from the entry action, maybe, in the case that it is needed. It prepares data needed for the Promise.all" style="whiteSpace=wrap;html=1;shape=mxgraph.basic.roundRectCallout;dx=30;dy=15;size=5;boundedLbl=1;" vertex="1" parent="165">
                    <mxGeometry x="540" y="340" width="250" height="100" as="geometry"/>
                </mxCell>
                <mxCell id="216" value="D" style="ellipse;whiteSpace=wrap;html=1;aspect=fixed;fontSize=12;" vertex="1" parent="165">
                    <mxGeometry x="420" y="830" width="20" height="20" as="geometry"/>
                </mxCell>
                <mxCell id="217" value="QueryDoneEvent:QueryDonePayload" style="endArrow=classic;html=1;rounded=0;exitX=1;exitY=0.5;exitDx=0;exitDy=0;entryX=0.5;entryY=0;entryDx=0;entryDy=0;" edge="1" parent="165" source="195" target="216">
                    <mxGeometry x="0.7038" y="-3" width="50" height="50" relative="1" as="geometry">
                        <mxPoint x="350" y="210" as="sourcePoint"/>
                        <mxPoint x="450" y="850" as="targetPoint"/>
                        <Array as="points">
                            <mxPoint x="430" y="760"/>
                        </Array>
                        <mxPoint as="offset"/>
                    </mxGeometry>
                </mxCell>
                <mxCell id="218" value="waitAllState uses a from-promise actor that does a Promise.all across the ActorRefs defined in parallelQueryState" style="whiteSpace=wrap;html=1;shape=mxgraph.basic.roundRectCallout;dx=30;dy=15;size=5;boundedLbl=1;" vertex="1" parent="165">
                    <mxGeometry x="530" y="480" width="260" height="60" as="geometry"/>
                </mxCell>
            </root>
        </mxGraphModel>
    </diagram>
</mxfile>
